<svg xmlns="http://www.w3.org/2000/svg" width="94.38" height="96" viewBox="0 0 94.38 96"><defs><style>.a{fill:#fff;}</style></defs><path class="a" d="M68.19,17.6,21,42.671v13.25L23.1,54.8,68.19,30.851l47.19,25.07V42.671Zm0,3.24,44.33,23.55v6.77L68.19,27.612,23.86,51.162v-6.77ZM45.31,46.392a4.313,4.313,0,0,0-4.29,4.29v9.178c-.492-.2-.877-.6-1.43-.6H29.58a4.313,4.313,0,0,0-4.29,4.29v45.76a4.313,4.313,0,0,0,4.29,4.29H39.59a4.233,4.233,0,0,0,2.86-1.19,4.233,4.233,0,0,0,2.86,1.19H58.18a4.233,4.233,0,0,0,2.86-1.19,4.233,4.233,0,0,0,2.86,1.19H73.91a4.233,4.233,0,0,0,2.86-1.19,4.233,4.233,0,0,0,2.86,1.19H91.07a4.233,4.233,0,0,0,2.86-1.19,4.233,4.233,0,0,0,2.86,1.19H106.8a4.313,4.313,0,0,0,4.29-4.29v-42.9a4.313,4.313,0,0,0-4.29-4.29H96.79c-.553,0-.939.4-1.43.6V59.262a4.313,4.313,0,0,0-4.29-4.29H79.63a4.313,4.313,0,0,0-4.29,4.29v3.458c-.491-.2-.877-.6-1.43-.6H63.9c-.553,0-.939.4-1.43.6V50.682a4.313,4.313,0,0,0-4.29-4.29Zm0,2.86H58.18a1.4,1.4,0,0,1,1.43,1.43v15.73h2.86a1.405,1.405,0,0,1,1.43-1.43H73.91a1.405,1.405,0,0,1,1.43,1.43H78.2v-7.15a1.405,1.405,0,0,1,1.43-1.43H91.07a1.405,1.405,0,0,1,1.43,1.43v7.15h2.86a1.405,1.405,0,0,1,1.43-1.43H106.8a1.405,1.405,0,0,1,1.43,1.43v42.9a1.405,1.405,0,0,1-1.43,1.43H96.79a1.405,1.405,0,0,1-1.43-1.43H92.5a1.405,1.405,0,0,1-1.43,1.43H79.63a1.405,1.405,0,0,1-1.43-1.43H75.34a1.405,1.405,0,0,1-1.43,1.43H63.9a1.405,1.405,0,0,1-1.43-1.43H59.61a1.405,1.405,0,0,1-1.43,1.43H45.31a1.4,1.4,0,0,1-1.43-1.43H41.02a1.4,1.4,0,0,1-1.43,1.43H29.58a1.4,1.4,0,0,1-1.43-1.43V63.552a1.4,1.4,0,0,1,1.43-1.43H39.59a1.4,1.4,0,0,1,1.43,1.43,1.43,1.43,0,1,0,2.86,0V50.682A1.4,1.4,0,0,1,45.31,49.252Zm1.43,4.29V56.4H56.75v-2.86Zm34.32,8.58v2.86h8.58v-2.86Zm-50.05,4.29v2.86h7.15v-2.86Zm11.44,2.86a1.43,1.43,0,1,0,1.43,1.43A1.433,1.433,0,0,0,42.45,69.272Zm18.59,0a1.43,1.43,0,1,0,1.43,1.43A1.433,1.433,0,0,0,61.04,69.272Zm4.29,0v2.86h7.15v-2.86Zm11.44,0A1.43,1.43,0,1,0,78.2,70.7,1.433,1.433,0,0,0,76.77,69.272Zm17.16,0a1.43,1.43,0,1,0,1.43,1.43A1.433,1.433,0,0,0,93.93,69.272Zm4.29,0v2.86h7.15v-2.86Zm-55.77,5.72a1.43,1.43,0,1,0,1.43,1.43A1.433,1.433,0,0,0,42.45,74.992Zm18.59,0a1.43,1.43,0,1,0,1.43,1.43A1.433,1.433,0,0,0,61.04,74.992Zm15.73,0a1.43,1.43,0,1,0,1.43,1.43A1.433,1.433,0,0,0,76.77,74.992Zm17.16,0a1.43,1.43,0,1,0,1.43,1.43A1.433,1.433,0,0,0,93.93,74.992Zm-51.48,5.72a1.43,1.43,0,1,0,1.43,1.43A1.433,1.433,0,0,0,42.45,80.712Zm18.59,0a1.43,1.43,0,1,0,1.43,1.43A1.433,1.433,0,0,0,61.04,80.712Zm15.73,0a1.43,1.43,0,1,0,1.43,1.43A1.433,1.433,0,0,0,76.77,80.712Zm17.16,0a1.43,1.43,0,1,0,1.43,1.43A1.433,1.433,0,0,0,93.93,80.712Zm-51.48,5.72a1.43,1.43,0,1,0,1.43,1.43A1.433,1.433,0,0,0,42.45,86.432Zm18.59,0a1.43,1.43,0,1,0,1.43,1.43A1.433,1.433,0,0,0,61.04,86.432Zm15.73,0a1.43,1.43,0,1,0,1.43,1.43A1.433,1.433,0,0,0,76.77,86.432Zm17.16,0a1.43,1.43,0,1,0,1.43,1.43A1.433,1.433,0,0,0,93.93,86.432Zm-51.48,5.72a1.43,1.43,0,1,0,1.43,1.43A1.433,1.433,0,0,0,42.45,92.152Zm18.59,0a1.43,1.43,0,1,0,1.43,1.43A1.433,1.433,0,0,0,61.04,92.152Zm15.73,0a1.43,1.43,0,1,0,1.43,1.43A1.433,1.433,0,0,0,76.77,92.152Zm17.16,0a1.43,1.43,0,1,0,1.43,1.43A1.433,1.433,0,0,0,93.93,92.152Zm-51.48,5.72a1.43,1.43,0,1,0,1.43,1.43A1.433,1.433,0,0,0,42.45,97.872Zm18.59,0a1.43,1.43,0,1,0,1.43,1.43A1.433,1.433,0,0,0,61.04,97.872Zm15.73,0A1.43,1.43,0,1,0,78.2,99.3,1.433,1.433,0,0,0,76.77,97.872Zm17.16,0a1.43,1.43,0,1,0,1.43,1.43A1.433,1.433,0,0,0,93.93,97.872Zm-62.92,5.72v2.86h7.15v-2.86Zm11.44,0a1.43,1.43,0,1,0,1.43,1.43A1.433,1.433,0,0,0,42.45,103.592Zm4.29,0v2.86H56.75v-2.86Zm14.3,0a1.43,1.43,0,1,0,1.43,1.43A1.433,1.433,0,0,0,61.04,103.592Zm4.29,0v2.86h7.15v-2.86Zm11.44,0a1.43,1.43,0,1,0,1.43,1.43A1.433,1.433,0,0,0,76.77,103.592Zm4.29,0v2.86h8.58v-2.86Zm12.87,0a1.43,1.43,0,1,0,1.43,1.43A1.433,1.433,0,0,0,93.93,103.592Zm4.29,0v2.86h7.15v-2.86Z" transform="translate(-21 -17.602)"/></svg>