<svg xmlns="http://www.w3.org/2000/svg" width="94.618" height="96" viewBox="0 0 94.618 96"><defs><style>.a{fill:#fff;}</style></defs><path class="a" d="M51.186,6.249A4.729,4.729,0,0,0,47.557,7.98l-4.879,5.957H8.731A4.74,4.74,0,0,0,4,18.668V28.13A4.74,4.74,0,0,0,8.731,32.86h1.577V77.015H8.731a4.731,4.731,0,0,0,0,9.462h41v6.308a1.253,1.253,0,0,0,.055.271,4.731,4.731,0,1,0,3.043,0,1.253,1.253,0,0,0,.055-.271V86.477h41a4.731,4.731,0,0,0,0-9.462H92.31V32.86h1.577a4.74,4.74,0,0,0,4.731-4.731V18.668a4.74,4.74,0,0,0-4.731-4.731H59.927l-5.1-6.012A4.67,4.67,0,0,0,51.186,6.249ZM51.2,9.4a1.614,1.614,0,0,1,1.214.554l3.376,3.979H46.75L50,9.982A1.544,1.544,0,0,1,51.2,9.4ZM8.731,17.091H93.887a1.58,1.58,0,0,1,1.577,1.577V28.13a1.58,1.58,0,0,1-1.577,1.577H8.731A1.58,1.58,0,0,1,7.154,28.13V18.668A1.58,1.58,0,0,1,8.731,17.091Zm3.154,3.154a1.576,1.576,0,0,0-1.577,1.577v3.154a1.577,1.577,0,1,0,3.154,0V21.822A1.576,1.576,0,0,0,11.885,20.245Zm7.885,0a1.576,1.576,0,0,0-1.577,1.577v3.154a1.577,1.577,0,1,0,3.154,0V21.822A1.576,1.576,0,0,0,19.77,20.245Zm7.885,0a1.576,1.576,0,0,0-1.577,1.577v3.154a1.577,1.577,0,1,0,3.154,0V21.822A1.576,1.576,0,0,0,27.654,20.245Zm7.885,0a1.576,1.576,0,0,0-1.577,1.577v3.154a1.577,1.577,0,1,0,3.154,0V21.822A1.576,1.576,0,0,0,35.539,20.245Zm7.885,0a1.576,1.576,0,0,0-1.577,1.577v3.154a1.577,1.577,0,1,0,3.154,0V21.822A1.576,1.576,0,0,0,43.424,20.245Zm7.885,0a1.576,1.576,0,0,0-1.577,1.577v3.154a1.577,1.577,0,1,0,3.154,0V21.822A1.576,1.576,0,0,0,51.309,20.245Zm7.885,0a1.576,1.576,0,0,0-1.577,1.577v3.154a1.577,1.577,0,1,0,3.154,0V21.822A1.576,1.576,0,0,0,59.194,20.245Zm7.885,0A1.576,1.576,0,0,0,65.5,21.822v3.154a1.577,1.577,0,1,0,3.154,0V21.822A1.576,1.576,0,0,0,67.078,20.245Zm7.885,0a1.576,1.576,0,0,0-1.577,1.577v3.154a1.577,1.577,0,1,0,3.154,0V21.822A1.576,1.576,0,0,0,74.963,20.245Zm7.885,0a1.576,1.576,0,0,0-1.577,1.577v3.154a1.577,1.577,0,0,0,3.154,0V21.822A1.576,1.576,0,0,0,82.848,20.245Zm7.885,0a1.576,1.576,0,0,0-1.577,1.577v3.154a1.577,1.577,0,1,0,3.154,0V21.822A1.576,1.576,0,0,0,90.733,20.245ZM13.462,32.86H89.156V77.015H13.462Zm20.5,12.616A1.576,1.576,0,0,0,32.453,46.6l-4.731,15.77a1.575,1.575,0,1,0,3.018.9l.61-2.027h2.612a1.577,1.577,0,1,0,0-3.154H32.293l1.669-5.55,3.222,10.731A1.571,1.571,0,0,0,38.693,64.4a1.624,1.624,0,0,0,.45-.068,1.571,1.571,0,0,0,1.06-1.959L35.471,46.6A1.576,1.576,0,0,0,33.962,45.476Zm12.616,0A1.576,1.576,0,0,0,45,47.053v15.77A1.576,1.576,0,0,0,46.578,64.4h6.308a4.74,4.74,0,0,0,4.731-4.731V56.515a4.712,4.712,0,0,0-1.774-3.665,3.208,3.208,0,0,0,.2-1.066V50.207a4.74,4.74,0,0,0-4.731-4.731Zm18.924,0a4.74,4.74,0,0,0-4.731,4.731v9.462A4.74,4.74,0,0,0,65.5,64.4h3.154a4.74,4.74,0,0,0,4.731-4.731,1.577,1.577,0,1,0-3.154,0,1.58,1.58,0,0,1-1.577,1.577H65.5a1.58,1.58,0,0,1-1.577-1.577V50.207A1.58,1.58,0,0,1,65.5,48.63h3.154a1.58,1.58,0,0,1,1.577,1.577,1.577,1.577,0,0,0,3.154,0,4.74,4.74,0,0,0-4.731-4.731ZM48.155,48.63h3.154a1.58,1.58,0,0,1,1.577,1.577v1.577H48.155Zm0,6.308h4.731a1.58,1.58,0,0,1,1.577,1.577v3.154a1.58,1.58,0,0,1-1.577,1.577H48.155ZM8.731,80.169H93.887a1.577,1.577,0,0,1,0,3.154H8.731a1.577,1.577,0,1,1,0-3.154ZM51.309,95.28a2.236,2.236,0,1,1-2.236,2.236A2.24,2.24,0,0,1,51.309,95.28Z" transform="translate(-4 -6.247)"/></svg>