<svg xmlns="http://www.w3.org/2000/svg" width="96.887" height="96" viewBox="0 0 96.887 96"><defs><style>.a{fill:#fff;}</style></defs><path class="a" d="M30.055,36A6.075,6.075,0,0,0,24,42.055V78.388a6.075,6.075,0,0,0,6.055,6.055h3.028V97.181L45.821,84.444H90.61a6.075,6.075,0,0,0,6.055-6.055V42.055A6.075,6.075,0,0,0,90.61,36Zm0,3.028H90.61a3,3,0,0,1,3.028,3.028V78.388a3,3,0,0,1-3.028,3.028H44.567l-8.456,8.456V81.416H30.055a3,3,0,0,1-3.028-3.028V42.055A3,3,0,0,1,30.055,39.028Zm3.028,4.542A1.514,1.514,0,1,0,34.6,45.083,1.517,1.517,0,0,0,33.083,43.569Zm6.055,0a1.514,1.514,0,1,0,1.514,1.514A1.517,1.517,0,0,0,39.139,43.569Zm6.055,0a1.514,1.514,0,1,0,1.514,1.514A1.517,1.517,0,0,0,45.194,43.569Zm6.055,0a1.514,1.514,0,1,0,1.514,1.514A1.517,1.517,0,0,0,51.25,43.569Zm6.055,0a1.514,1.514,0,1,0,1.514,1.514A1.517,1.517,0,0,0,57.3,43.569Zm6.055,0a1.514,1.514,0,1,0,1.514,1.514A1.517,1.517,0,0,0,63.36,43.569Zm6.055,0a1.514,1.514,0,1,0,1.514,1.514A1.517,1.517,0,0,0,69.416,43.569Zm6.055,0a1.514,1.514,0,1,0,1.514,1.514A1.517,1.517,0,0,0,75.471,43.569Zm6.055,0a1.514,1.514,0,1,0,1.514,1.514A1.517,1.517,0,0,0,81.527,43.569Zm6.055,0A1.514,1.514,0,1,0,89.1,45.083,1.517,1.517,0,0,0,87.582,43.569Zm-54.5,6.055A1.514,1.514,0,1,0,34.6,51.139,1.517,1.517,0,0,0,33.083,49.625Zm27.267,1.94c-5.588,0-9.1,3.915-9.1,10.219,0,6.327,3.483,10.2,9.1,10.2a10.469,10.469,0,0,0,3.454-.55l1.591,2.147h3.158L66.11,70.038c2.117-1.632,3.306-4.542,3.306-8.255C69.416,55.479,65.921,51.564,60.35,51.564Zm0,2.821c3.654,0,5.973,2.862,5.973,7.4,0,2.484-.727,4.453-2.023,5.559l-1.46-1.8H59.747L62.2,68.92a6.991,6.991,0,0,1-1.839.243c-3.7,0-6-2.833-6-7.38S56.678,54.385,60.35,54.385Zm-27.267,1.3A1.514,1.514,0,1,0,34.6,57.194,1.517,1.517,0,0,0,33.083,55.68Zm0,6.055A1.514,1.514,0,1,0,34.6,63.25,1.517,1.517,0,0,0,33.083,61.736Zm0,6.055A1.514,1.514,0,1,0,34.6,69.3,1.517,1.517,0,0,0,33.083,67.791Zm66.61,3.028v3.028h15.139a3,3,0,0,1,3.028,3.028v36.333a3,3,0,0,1-3.028,3.028h-6.055v8.456l-8.456-8.456H54.277a3,3,0,0,1-3.028-3.028V87.471H48.222v25.736a6.075,6.075,0,0,0,6.055,6.055H99.066L111.8,132V119.262h3.028a6.075,6.075,0,0,0,6.055-6.055V76.874a6.075,6.075,0,0,0-6.055-6.055Zm-66.61,3.028A1.514,1.514,0,1,0,34.6,75.36,1.517,1.517,0,0,0,33.083,73.847Zm72.665,4.542a1.514,1.514,0,1,0,1.514,1.514A1.517,1.517,0,0,0,105.749,78.388Zm6.055,0a1.514,1.514,0,1,0,1.514,1.514A1.517,1.517,0,0,0,111.8,78.388ZM82.828,84.7l-7.469,20.673h3.3l1.9-5.488H88.44l1.892,5.488h3.406L86.281,84.7Zm1.561,3.755h.242l3,8.734H81.385ZM57.3,90.5a1.514,1.514,0,1,0,1.514,1.514A1.517,1.517,0,0,0,57.3,90.5Zm0,6.055a1.514,1.514,0,1,0,1.514,1.514A1.517,1.517,0,0,0,57.3,96.554Zm0,6.055a1.514,1.514,0,1,0,1.514,1.514A1.517,1.517,0,0,0,57.3,102.61Zm0,6.055a1.514,1.514,0,1,0,1.514,1.514A1.517,1.517,0,0,0,57.3,108.665Z" transform="translate(-24 -36)"/></svg>