<svg xmlns="http://www.w3.org/2000/svg" width="96" height="96" viewBox="0 0 96 96"><defs><style>.a{fill:#fff;}</style></defs><path class="a" d="M18.839,0a1.922,1.922,0,0,0-1.561,1.92v3.84a1.92,1.92,0,1,0,3.84,0V3.84h67.2V48H80.461l2.1-3.837-2.1-3.84H63.36V48H42.06a1.922,1.922,0,0,0,.181,3.84H92.16v1.92H42.241a1.92,1.92,0,1,0,0,3.84H94.08A1.923,1.923,0,0,0,96,55.679V49.918A1.925,1.925,0,0,0,94.08,48H92.16V1.92A1.923,1.923,0,0,0,90.239,0h-71.4Zm4.2,9.6A11.519,11.519,0,1,0,34.56,21.119,11.551,11.551,0,0,0,23.039,9.6Zm0,23.039H18.6a9.7,9.7,0,0,0-5.523,1.5C11.113,35.46,9.6,38,9.6,41.64V62.279A9.488,9.488,0,0,0,7.261,78.3,13.541,13.541,0,0,0,0,90.239V94.08A1.923,1.923,0,0,0,1.92,96H94.08A1.923,1.923,0,0,0,96,94.08V90.239A13.541,13.541,0,0,0,88.739,78.3a9.6,9.6,0,1,0-12.36,0,13.8,13.8,0,0,0-5.337,5.042A13.625,13.625,0,0,0,65.7,78.3a9.6,9.6,0,1,0-12.36,0A13.837,13.837,0,0,0,48,83.341,13.643,13.643,0,0,0,42.661,78.3a9.56,9.56,0,0,0,3.417-7.258,9.66,9.66,0,0,0-7.677-9.42V44.161l8.218-2.941.06-.06c.015-.008.045.008.06,0a7.546,7.546,0,0,0,3.9-2.582h.06l9.6-12.417V26.1a5.483,5.483,0,0,0-.96-7.681,5.675,5.675,0,0,0-4.018-1.081,5.215,5.215,0,0,0-3.659,2.041L43.439,30,30.72,32.64Zm0-19.2a7.679,7.679,0,1,1-7.681,7.677A7.645,7.645,0,0,1,23.039,13.442Zm32.7,7.738a1.753,1.753,0,0,1,1.259.3,1.781,1.781,0,0,1,.242,2.279c-.015.015.015.045,0,.06l-9.6,12.417v.06a4.969,4.969,0,0,1-2.1,1.2.9.9,0,0,0-.121.06l-9.6,3.417a1.924,1.924,0,0,0-1.259,1.86V61.621a9.659,9.659,0,0,0-7.681,9.42A9.551,9.551,0,0,0,30.3,78.3a13.81,13.81,0,0,0-5.341,5.042A13.574,13.574,0,0,0,19.618,78.3,9.54,9.54,0,0,0,13.442,61.44V41.64c0-2.7.779-3.674,1.739-4.321a6.489,6.489,0,0,1,3.421-.839H30.72a1.935,1.935,0,0,0,.42-.06l13.8-2.88a1.953,1.953,0,0,0,1.138-.661L54.719,21.72A1.489,1.489,0,0,1,55.74,21.179Zm-42.3,44.1a5.646,5.646,0,1,1-1.743.238c.113-.038.25-.03.359-.06A2.241,2.241,0,0,0,12.3,65.4,5.651,5.651,0,0,1,13.442,65.28Zm46.078,0a5.759,5.759,0,1,1-5.761,5.761A5.733,5.733,0,0,1,59.519,65.28Zm23.039,0A5.759,5.759,0,1,1,76.8,71.041,5.733,5.733,0,0,1,82.558,65.28ZM36,65.341h.06a1.929,1.929,0,0,0,.779,0h.06a5.73,5.73,0,1,1-.9,0Zm-22.559,15.3a9.619,9.619,0,0,1,9.6,9.6v1.92H3.84v-1.92A9.62,9.62,0,0,1,13.442,80.638Zm23.039,0a9.616,9.616,0,0,1,9.6,9.6v1.92h-19.2v-1.92A9.62,9.62,0,0,1,36.481,80.638Zm23.039,0a9.62,9.62,0,0,1,9.6,9.6v1.92h-19.2v-1.92A9.62,9.62,0,0,1,59.519,80.638Zm23.039,0a9.62,9.62,0,0,1,9.6,9.6v1.92h-19.2v-1.92A9.616,9.616,0,0,1,82.558,80.638Z"/></svg>